<svg width="48" height="48" viewBox="0 0 48 48" fill="none" xmlns="http://www.w3.org/2000/svg">
<g filter="url(#filter0_d_216_143)">
<rect x="4" width="40" height="40" rx="5" fill="#0B1F56"/>
<path fill-rule="evenodd" clip-rule="evenodd" d="M32.1877 29.9835C29.5846 23.5787 26.5461 21.8907 26.5461 18.6964V14.9341H27.1825C27.3513 14.9341 27.5132 14.868 27.6326 14.7504C27.752 14.6328 27.819 14.4733 27.819 14.307V13.0529C27.819 12.8866 27.752 12.7271 27.6326 12.6095C27.5132 12.4919 27.3513 12.4258 27.1825 12.4258H20.8179C20.6491 12.4258 20.4872 12.4919 20.3678 12.6095C20.2485 12.7271 20.1814 12.8866 20.1814 13.0529V14.307C20.1814 14.4733 20.2485 14.6328 20.3678 14.7504C20.4872 14.868 20.6491 14.9341 20.8179 14.9341H21.4544V18.6964C21.4544 21.8907 18.4159 23.5787 15.8127 29.9835C14.9841 32.0215 12.8557 35 24.0002 35C35.1447 35 33.0164 32.0215 32.1877 29.9835ZM30.1294 32.1795C29.2358 32.4428 27.4575 32.7426 24.0002 32.7426C20.5429 32.7426 18.7647 32.4428 17.8711 32.1795C17.5541 32.0867 17.4306 31.7242 17.5426 31.3919C17.8227 30.5516 18.351 29.0994 19.3387 27.4778C21.7522 23.516 24.2561 28.1011 26.3399 28.1011C28.4237 28.1011 27.8521 26.1434 28.6617 27.4778C29.4063 28.7126 30.0087 30.0254 30.4578 31.3919C30.5698 31.7242 30.4463 32.0854 30.1294 32.1795Z" fill="white"/>
<circle cx="25.7824" cy="9.9009" r="1.18812" fill="white"/>
<circle cx="21.6238" cy="9.30684" r="0.594058" fill="white"/>
<circle cx="23.7034" cy="6.48513" r="1.48514" fill="white"/>
</g>
<defs>
<filter id="filter0_d_216_143" x="0" y="0" width="48" height="48" filterUnits="userSpaceOnUse" color-interpolation-filters="sRGB">
<feFlood flood-opacity="0" result="BackgroundImageFix"/>
<feColorMatrix in="SourceAlpha" type="matrix" values="0 0 0 0 0 0 0 0 0 0 0 0 0 0 0 0 0 0 127 0" result="hardAlpha"/>
<feOffset dy="4"/>
<feGaussianBlur stdDeviation="2"/>
<feComposite in2="hardAlpha" operator="out"/>
<feColorMatrix type="matrix" values="0 0 0 0 0 0 0 0 0 0 0 0 0 0 0 0 0 0 0.25 0"/>
<feBlend mode="normal" in2="BackgroundImageFix" result="effect1_dropShadow_216_143"/>
<feBlend mode="normal" in="SourceGraphic" in2="effect1_dropShadow_216_143" result="shape"/>
</filter>
</defs>
</svg>
