<svg width="26" height="25" viewBox="0 0 26 25" fill="none" xmlns="http://www.w3.org/2000/svg">
<path d="M13.0002 20.4635C11.5929 19.4729 9.96371 18.8416 8.25537 18.6291C7.04376 18.383 5.80935 18.2667 4.57308 18.2823C4.41489 18.2836 4.258 18.2537 4.11146 18.1941C3.96491 18.1345 3.83163 18.0465 3.71928 17.9351C3.60694 17.8237 3.51777 17.6912 3.45692 17.5452C3.39607 17.3992 3.36474 17.2425 3.36475 17.0843L3.38662 5.73746C3.38596 5.43301 3.50124 5.13972 3.70904 4.91721C3.91685 4.69471 4.20158 4.55967 4.50537 4.53955C5.76385 4.51453 7.02131 4.627 8.25537 4.87496C9.96185 5.09513 11.5897 5.72484 13.0002 6.71038M13.0002 20.4635V6.71038M13.0002 20.4635C14.4075 19.4729 16.0366 18.8416 17.745 18.6291C18.9566 18.383 20.191 18.2667 21.4272 18.2823C21.5854 18.2836 21.7423 18.2537 21.8889 18.1941C22.0354 18.1345 22.1687 18.0465 22.281 17.9351C22.3934 17.8237 22.4826 17.6912 22.5434 17.5452C22.6043 17.3992 22.6356 17.2425 22.6356 17.0843L22.6127 5.73746C22.6133 5.43318 22.4982 5.14004 22.2906 4.91755C22.083 4.69507 21.7986 4.55992 21.495 4.53955C20.2365 4.51453 18.979 4.627 17.745 4.87496C16.0385 5.09513 14.4106 5.72484 13.0002 6.71038" stroke="#0B1F56" stroke-width="2" stroke-linecap="round" stroke-linejoin="round"/>
</svg>
