<svg width="26" height="25" viewBox="0 0 26 25" fill="none" xmlns="http://www.w3.org/2000/svg">
<path d="M3.625 12.5H4.66667M13 3.125V4.16667M21.3333 12.5H22.375M6.33333 5.83333L7.0625 6.5625M19.6667 5.83333L18.9375 6.5625M10.6042 17.7083H15.3958M9.875 16.6667C9.00049 16.0108 8.35451 15.0964 8.02858 14.053C7.70264 13.0095 7.71326 11.89 8.05894 10.853C8.40462 9.81594 9.06783 8.91395 9.95463 8.27478C10.8414 7.63561 11.9069 7.29167 13 7.29167C14.0931 7.29167 15.1586 7.63561 16.0454 8.27478C16.9322 8.91395 17.5954 9.81594 17.9411 10.853C18.2867 11.89 18.2974 13.0095 17.9714 14.053C17.6455 15.0964 16.9995 16.0108 16.125 16.6667C15.7183 17.0693 15.4121 17.5619 15.2311 18.1048C15.0502 18.6477 14.9995 19.2256 15.0833 19.7917C15.0833 20.3442 14.8638 20.8741 14.4731 21.2648C14.0824 21.6555 13.5525 21.875 13 21.875C12.4475 21.875 11.9176 21.6555 11.5269 21.2648C11.1362 20.8741 10.9167 20.3442 10.9167 19.7917C11.0005 19.2256 10.9498 18.6477 10.7689 18.1048C10.5879 17.5619 10.2817 17.0693 9.875 16.6667Z" stroke="#0B1F56" stroke-width="2" stroke-linecap="round" stroke-linejoin="round"/>
</svg>
