<svg width="19" height="20" viewBox="0 0 19 20" fill="none" xmlns="http://www.w3.org/2000/svg">
<path d="M9.1875 0.8125C7.37039 0.8125 5.59408 1.35134 4.0832 2.36087C2.57233 3.37041 1.39474 4.8053 0.699361 6.4841C0.00398079 8.16289 -0.177962 10.0102 0.176539 11.7924C0.531041 13.5746 1.40607 15.2116 2.69096 16.4965C3.97586 17.7814 5.61291 18.6565 7.39511 19.011C9.17731 19.3655 11.0246 19.1835 12.7034 18.4881C14.3822 17.7928 15.8171 16.6152 16.8266 15.1043C17.8362 13.5934 18.375 11.8171 18.375 10C18.375 7.56332 17.407 5.22645 15.684 3.50346C13.9611 1.78047 11.6242 0.8125 9.1875 0.8125ZM7.875 13.6684L4.59375 10.3872L5.63719 9.34375L7.875 11.5816L12.7378 6.71875L13.7852 7.75956L7.875 13.6684Z" fill="#6997ED"/>
</svg>
