<svg width="22" height="21" viewBox="0 0 22 21" fill="none" xmlns="http://www.w3.org/2000/svg">
<path d="M11 1.3125L3.125 3.9375V11.8125C3.125 16.1622 6.65029 19.6875 11 19.6875C15.3497 19.6875 18.875 16.1622 18.875 11.8125V3.9375L11 1.3125ZM17.3984 11.8125C17.3984 15.346 14.5335 18.2109 11 18.2109C7.4665 18.2109 4.60156 15.346 4.60156 11.8125V5.04492L11 2.78906L17.3984 5.04492V11.8125Z" fill="#0B1F56"/>
<path d="M8.26024 9.74326C8.19182 9.67452 8.11048 9.61998 8.02092 9.58276C7.93135 9.54554 7.83531 9.52638 7.73832 9.52638C7.64133 9.52638 7.54529 9.54554 7.45572 9.58276C7.36616 9.61998 7.28482 9.67452 7.2164 9.74326C7.14766 9.81169 7.09311 9.89302 7.05589 9.98259C7.01867 10.0722 6.99951 10.1682 6.99951 10.2652C6.99951 10.3622 7.01867 10.4582 7.05589 10.5478C7.09311 10.6373 7.14766 10.7187 7.2164 10.7871L9.87011 13.4408L9.91317 13.4839C9.9779 13.5487 10.0548 13.6002 10.1394 13.6353C10.224 13.6704 10.3148 13.6885 10.4064 13.6885C10.498 13.6885 10.5887 13.6704 10.6734 13.6353C10.758 13.6002 10.8349 13.5487 10.8996 13.4839L15.4831 8.90039C15.5479 8.83567 15.5994 8.75879 15.6345 8.67415C15.6696 8.58952 15.6877 8.4988 15.6877 8.40718C15.6877 8.31556 15.6696 8.22483 15.6345 8.1402C15.5994 8.05557 15.5479 7.97869 15.4831 7.91397L15.4257 7.85654C15.3609 7.7917 15.2841 7.74025 15.1994 7.70515C15.1148 7.67005 15.0241 7.65198 14.9325 7.65198C14.8408 7.65198 14.7501 7.67005 14.6655 7.70515C14.5809 7.74025 14.504 7.7917 14.4392 7.85654L10.4054 11.8884L8.26024 9.74326Z" fill="#0B1F56"/>
</svg>
