<svg width="40" height="40" viewBox="0 0 40 40" fill="none" xmlns="http://www.w3.org/2000/svg">
<path d="M10.833 31.6667C8.75412 31.6667 6.98467 30.9411 5.52467 29.49C4.06356 28.0411 3.33301 26.2761 3.33301 24.195C3.33301 22.285 3.98579 20.59 5.29134 19.11C6.5969 17.63 8.21967 16.835 10.1597 16.725C10.4397 14.6606 11.4758 12.7628 13.268 11.0317C15.0602 9.30055 17.0263 8.43555 19.1663 8.43666C19.613 8.43666 20.0025 8.60277 20.3347 8.935C20.6669 9.26722 20.833 9.65611 20.833 10.1017V22.2367L24.2697 18.82L25.448 20L19.9997 25.45L14.5497 20L15.7313 18.82L19.1663 22.2367V10.1033C17.0775 10.1922 15.3052 11.1006 13.8497 12.8283C12.3941 14.5561 11.6663 16.3911 11.6663 18.3333H10.833C9.2219 18.3333 7.8469 18.9028 6.70801 20.0417C5.56912 21.1806 4.99967 22.5556 4.99967 24.1667C4.99967 25.7778 5.56912 27.1528 6.70801 28.2917C7.8469 29.4306 9.2219 30 10.833 30H30.833C31.9997 30 32.9858 29.5972 33.7913 28.7917C34.5969 27.9861 34.9997 27 34.9997 25.8333C34.9997 24.6667 34.5969 23.6806 33.7913 22.875C32.9858 22.0694 31.9997 21.6667 30.833 21.6667H28.333V18.3333C28.333 16.9567 28.0275 15.6922 27.4163 14.54C26.8052 13.3878 25.9997 12.43 24.9997 11.6667V9.68333C26.5641 10.5489 27.7886 11.7567 28.673 13.3067C29.5575 14.8567 29.9997 16.5322 29.9997 18.3333V20H31.0263C32.6219 20.0511 33.9608 20.6372 35.043 21.7583C36.1252 22.8794 36.6663 24.2378 36.6663 25.8333C36.6663 27.4678 36.103 28.8489 34.9763 29.9767C33.8475 31.1033 32.4663 31.6667 30.833 31.6667H10.833Z" fill="#0B1F56" fill-opacity="0.7"/>
</svg>
