<svg width="17" height="17" viewBox="0 0 17 17" fill="none" xmlns="http://www.w3.org/2000/svg">
<g clip-path="url(#clip0_893_224)">
<path d="M16.5 8.5C16.5 4.08175 12.9183 0.5 8.5 0.5C4.08175 0.5 0.5 4.08175 0.5 8.5C0.5 12.493 3.4255 15.8027 7.25 16.4028V10.8125H5.21875V8.5H7.25V6.7375C7.25 4.7325 8.44438 3.625 10.2718 3.625C11.147 3.625 12.0625 3.78125 12.0625 3.78125V5.75H11.0538C10.0599 5.75 9.75 6.36669 9.75 6.99937V8.5H11.9688L11.6141 10.8125H9.75V16.4028C13.5745 15.8027 16.5 12.4931 16.5 8.5Z" fill="#1877F2"/>
<path d="M11.6141 10.8125L11.9688 8.5H9.75V6.99937C9.75 6.36662 10.0599 5.75 11.0538 5.75H12.0625V3.78125C12.0625 3.78125 11.147 3.625 10.2717 3.625C8.44438 3.625 7.25 4.7325 7.25 6.7375V8.5H5.21875V10.8125H7.25V16.4028C7.66351 16.4676 8.08144 16.5001 8.5 16.5C8.91856 16.5001 9.33649 16.4676 9.75 16.4028V10.8125H11.6141Z" fill="white"/>
</g>
<defs>
<clipPath id="clip0_893_224">
<rect width="16" height="16" fill="white" transform="translate(0.5 0.5)"/>
</clipPath>
</defs>
</svg>
