<svg width="331" height="557" viewBox="0 0 331 557" fill="none" xmlns="http://www.w3.org/2000/svg">
<path fill-rule="evenodd" clip-rule="evenodd" d="M317.459 463.862C269.127 344.947 212.713 313.606 212.713 254.299V184.445H224.53C227.664 184.445 230.669 183.218 232.886 181.035C235.102 178.852 236.347 175.89 236.347 172.803V149.518C236.347 146.43 235.102 143.469 232.886 141.285C230.669 139.102 227.664 137.875 224.53 137.875H106.36C103.225 137.875 100.22 139.102 98.0037 141.285C95.7876 143.469 94.5425 146.43 94.5425 149.518V172.803C94.5425 175.89 95.7876 178.852 98.0037 181.035C100.22 183.218 103.225 184.445 106.36 184.445H118.177V254.299C118.177 313.606 61.7622 344.947 13.4306 463.862C-1.95512 501.7 -41.4712 557.002 165.445 557.002C372.36 557.002 332.844 501.7 317.459 463.862ZM279.242 504.634C262.651 509.524 229.635 515.089 165.445 515.089C101.255 515.089 68.2379 509.524 51.6468 504.634C45.7619 502.911 43.4695 496.182 45.5492 490.011C50.7487 474.41 60.5568 447.447 78.8968 417.339C123.707 343.783 170.195 428.912 208.884 428.912C247.573 428.912 236.961 392.564 251.992 417.339C265.816 440.266 277.001 464.641 285.34 490.011C287.42 496.182 285.127 502.888 279.242 504.634Z" fill="#0B1F56" fill-opacity="0.5"/>
<circle cx="198.533" cy="90.9966" r="22.0591" fill="#0B1F56" fill-opacity="0.5"/>
<circle cx="121.328" cy="79.967" r="11.0295" fill="#0B1F56" fill-opacity="0.5"/>
<circle cx="159.931" cy="27.5739" r="27.5739" fill="#0B1F56" fill-opacity="0.5"/>
</svg>
