<svg width="17" height="17" viewBox="0 0 17 17" fill="none" xmlns="http://www.w3.org/2000/svg">
<path opacity="0.987" fill-rule="evenodd" clip-rule="evenodd" d="M7.70875 1.56099C8.43375 1.47999 8.86275 1.47999 9.64175 1.56099C11.0207 1.76509 12.299 2.40248 13.2918 3.38099C12.6209 4.01513 11.9588 4.65852 11.3058 5.31099C10.0551 4.25099 8.65909 4.00633 7.11775 4.57699C5.98709 5.09699 5.19975 5.93966 4.75575 7.10499C4.03019 6.56482 3.31409 6.01207 2.60775 5.44699C2.55867 5.42116 2.5026 5.4117 2.44775 5.41999C3.56975 3.25666 5.32309 1.96999 7.70775 1.55999" fill="#F44336"/>
<path opacity="0.997" fill-rule="evenodd" clip-rule="evenodd" d="M2.44576 5.41994C2.50243 5.41127 2.5561 5.42027 2.60676 5.44694C3.3131 6.01202 4.0292 6.56477 4.75476 7.10494C4.64059 7.559 4.56862 8.02263 4.53976 8.48994C4.56443 8.94194 4.6361 9.3856 4.75476 9.82094L2.49976 11.6159C1.51776 9.56394 1.49976 7.4986 2.44576 5.41994Z" fill="#FFC107"/>
<path opacity="0.999" fill-rule="evenodd" clip-rule="evenodd" d="M13.1846 13.79C12.4824 13.1708 11.7474 12.5899 10.9826 12.05C11.7492 11.5087 12.2146 10.766 12.3786 9.82199H8.62158V7.21299C10.7882 7.19499 12.9539 7.21332 15.1186 7.26799C15.5292 9.49799 15.0549 11.5087 13.6956 13.3C13.5339 13.4718 13.3627 13.6354 13.1846 13.79Z" fill="#448AFF"/>
<path opacity="0.993" fill-rule="evenodd" clip-rule="evenodd" d="M4.755 9.82202C5.575 11.86 7.07833 12.8114 9.265 12.676C9.87883 12.605 10.4673 12.3905 10.983 12.05C11.7483 12.5914 12.4823 13.1714 13.185 13.79C12.0716 14.7905 10.6521 15.3841 9.158 15.474C8.81854 15.5012 8.47746 15.5012 8.138 15.474C5.59267 15.174 3.71333 13.888 2.5 11.616L4.755 9.82202Z" fill="#43A047"/>
</svg>
