<svg width="22" height="22" viewBox="0 0 22 22" fill="none" xmlns="http://www.w3.org/2000/svg">
<path d="M11 7.33337C11 7.33337 11 7.33337 10.3033 6.41671C9.49667 5.35337 8.305 4.58337 6.875 4.58337C4.5925 4.58337 2.75 6.42587 2.75 8.70837C2.75 9.56087 3.00667 10.3492 3.44667 11C4.18917 12.1092 11 19.25 11 19.25C11 19.25 17.8108 12.1092 18.5533 11C18.9933 10.3492 19.25 9.56087 19.25 8.70837C19.25 6.42587 17.4075 4.58337 15.125 4.58337C13.695 4.58337 12.5033 5.35337 11.6967 6.41671C11 7.33337 11 7.33337 11 7.33337Z" stroke="#0B1F56" stroke-width="2" stroke-linecap="round" stroke-linejoin="round"/>
</svg>
