<svg width="59" height="59" viewBox="0 0 59 59" fill="none" xmlns="http://www.w3.org/2000/svg">
<rect width="59" height="59" rx="29.5" fill="#6997ED" fill-opacity="0.5"/>
<path d="M39.8631 27.6718L26.086 41.8512C25.7031 42.244 25.0682 41.7889 25.317 41.3003L30.221 31.6142C30.2582 31.5411 30.2759 31.4597 30.2726 31.3778C30.2693 31.2958 30.2451 31.2161 30.2022 31.1462C30.1593 31.0763 30.0991 31.0187 30.0276 30.9787C29.956 30.9388 29.8754 30.9179 29.7935 30.918H19.4782C19.384 30.918 19.2919 30.8901 19.2135 30.8378C19.135 30.7856 19.0737 30.7113 19.0373 30.6244C19.0008 30.5374 18.9908 30.4416 19.0085 30.349C19.0262 30.2564 19.0709 30.171 19.1368 30.1037L31.9153 17.1458C32.2854 16.7706 32.9012 17.1825 32.6954 17.6696L29.0309 26.3161C28.9999 26.3894 28.9876 26.4693 28.9952 26.5486C29.0028 26.6278 29.0299 26.7039 29.0743 26.77C29.1186 26.8361 29.1787 26.8901 29.2491 26.9271C29.3196 26.9641 29.3981 26.983 29.4776 26.982L39.5137 26.8574C39.6084 26.8559 39.7015 26.8825 39.781 26.934C39.8606 26.9854 39.9231 27.0593 39.9607 27.1463C39.9983 27.2334 40.0092 27.3296 39.9921 27.4229C39.975 27.5161 39.9307 27.6022 39.8647 27.6702L39.8631 27.6718Z" stroke="#0B1F56" stroke-width="2"/>
</svg>
