<svg width="16" height="16" viewBox="0 0 16 16" fill="none" xmlns="http://www.w3.org/2000/svg">
<g clip-path="url(#clip0_1523_437)">
<path d="M14.5 0.374997H1.5C1.20504 0.371995 0.920934 0.486127 0.710024 0.69235C0.499114 0.898574 0.378626 1.18004 0.375 1.475V14.5275C0.379282 14.822 0.500058 15.1028 0.710896 15.3085C0.921735 15.5142 1.20547 15.628 1.5 15.625H14.5C14.795 15.6273 15.0789 15.5128 15.2897 15.3065C15.5005 15.1001 15.621 14.8187 15.625 14.5237V1.47125C15.6197 1.17716 15.4986 0.89703 15.288 0.691754C15.0773 0.486477 14.7941 0.372644 14.5 0.374997Z" fill="#0076B2"/>
<path d="M2.63264 6.09125H4.89639V13.375H2.63264V6.09125ZM3.76514 2.46625C4.02478 2.46625 4.27859 2.54326 4.49445 2.68753C4.71032 2.83181 4.87855 3.03686 4.97785 3.27676C5.07715 3.51667 5.10307 3.78063 5.05233 4.03526C5.00158 4.2899 4.87645 4.52376 4.69277 4.70727C4.50909 4.89077 4.27511 5.01568 4.02043 5.06618C3.76574 5.11668 3.5018 5.09051 3.262 4.99098C3.02219 4.89145 2.81729 4.72303 2.67323 4.50702C2.52916 4.29102 2.45239 4.03714 2.45264 3.7775C2.45297 3.42962 2.5914 3.0961 2.8375 2.85023C3.08361 2.60436 3.41726 2.46625 3.76514 2.46625ZM6.31639 6.09125H8.48639V7.09125H8.51639C8.81889 6.51875 9.55639 5.915 10.6576 5.915C12.9501 5.91 13.3751 7.41875 13.3751 9.375V13.375H11.1114V9.83125C11.1114 8.9875 11.0964 7.90125 9.93514 7.90125C8.77389 7.90125 8.57639 8.82125 8.57639 9.77625V13.375H6.31639V6.09125Z" fill="white"/>
</g>
<defs>
<clipPath id="clip0_1523_437">
<rect width="16" height="16" fill="white"/>
</clipPath>
</defs>
</svg>
