<svg width="54" height="54" viewBox="0 0 54 54" fill="none" xmlns="http://www.w3.org/2000/svg">
<g filter="url(#filter0_d_216_206)">
<rect x="4" width="46" height="46" rx="5" fill="white"/>
<path fill-rule="evenodd" clip-rule="evenodd" d="M37.3708 35.6458C34.0735 27.533 30.2248 25.3948 30.2248 21.3488V16.5831H31.031C31.2448 16.5831 31.4498 16.4994 31.601 16.3505C31.7522 16.2015 31.8372 15.9995 31.8372 15.7888V14.2003C31.8372 13.9896 31.7522 13.7876 31.601 13.6386C31.4498 13.4897 31.2448 13.406 31.031 13.406H22.9691C22.7552 13.406 22.5502 13.4897 22.399 13.6386C22.2478 13.7876 22.1629 13.9896 22.1629 14.2003V15.7888C22.1629 15.9995 22.2478 16.2015 22.399 16.3505C22.5502 16.4994 22.7552 16.5831 22.9691 16.5831H23.7752V21.3488C23.7752 25.3948 19.9265 27.533 16.6292 35.6458C15.5795 38.2272 12.8836 42 27 42C41.1164 42 38.4205 38.2272 37.3708 35.6458ZM34.7636 38.4274C33.6317 38.761 31.3792 39.1406 27 39.1406C22.6208 39.1406 20.3683 38.761 19.2364 38.4274C18.8349 38.3098 18.6785 37.8507 18.8204 37.4298C19.1751 36.3654 19.8443 34.5259 21.0955 32.4719C24.1525 27.4536 27.3241 33.2614 29.9636 33.2614C32.603 33.2614 31.8791 30.7816 32.9045 32.4719C33.8477 34.036 34.6107 35.6989 35.1796 37.4298C35.3215 37.8507 35.1651 38.3082 34.7636 38.4274Z" fill="#05184D"/>
<circle cx="29.2574" cy="10.2078" r="1.50495" fill="#05184D"/>
<circle cx="23.9903" cy="9.45536" r="0.752474" fill="#05184D"/>
<circle cx="26.6239" cy="5.88119" r="1.88119" fill="#05184D"/>
</g>
<defs>
<filter id="filter0_d_216_206" x="0" y="0" width="54" height="54" filterUnits="userSpaceOnUse" color-interpolation-filters="sRGB">
<feFlood flood-opacity="0" result="BackgroundImageFix"/>
<feColorMatrix in="SourceAlpha" type="matrix" values="0 0 0 0 0 0 0 0 0 0 0 0 0 0 0 0 0 0 127 0" result="hardAlpha"/>
<feOffset dy="4"/>
<feGaussianBlur stdDeviation="2"/>
<feComposite in2="hardAlpha" operator="out"/>
<feColorMatrix type="matrix" values="0 0 0 0 0 0 0 0 0 0 0 0 0 0 0 0 0 0 0.25 0"/>
<feBlend mode="normal" in2="BackgroundImageFix" result="effect1_dropShadow_216_206"/>
<feBlend mode="normal" in="SourceGraphic" in2="effect1_dropShadow_216_206" result="shape"/>
</filter>
</defs>
</svg>
