<svg width="41" height="41" viewBox="0 0 41 41" fill="none" xmlns="http://www.w3.org/2000/svg">
<g filter="url(#filter0_d_244_231)">
<rect x="4" width="33" height="33" rx="5" fill="#0B1F56"/>
<path fill-rule="evenodd" clip-rule="evenodd" d="M27.3912 24.9028C25.2002 19.5121 22.6428 18.0913 22.6428 15.4028V12.2361H23.1785C23.3205 12.2361 23.4568 12.1805 23.5573 12.0815C23.6577 11.9826 23.7142 11.8483 23.7142 11.7083V10.6528C23.7142 10.5128 23.6577 10.3786 23.5573 10.2796C23.4568 10.1806 23.3205 10.125 23.1785 10.125H17.8215C17.6795 10.125 17.5432 10.1806 17.4427 10.2796C17.3423 10.3786 17.2858 10.5128 17.2858 10.6528V11.7083C17.2858 11.8483 17.3423 11.9826 17.4427 12.0815C17.5432 12.1805 17.6795 12.2361 17.8215 12.2361H18.3572V15.4028C18.3572 18.0913 15.7998 19.5121 13.6088 24.9028C12.9114 26.6181 11.12 29.125 20.5 29.125C29.88 29.125 28.0886 26.6181 27.3912 24.9028ZM25.6587 26.7511C24.9066 26.9727 23.4099 27.225 20.5 27.225C17.5901 27.225 16.0934 26.9727 15.3413 26.7511C15.0745 26.6729 14.9706 26.3679 15.0649 26.0882C15.3006 25.3809 15.7452 24.1586 16.5766 22.7938C18.6079 19.4593 20.7154 23.3184 22.4692 23.3184C24.2231 23.3184 23.742 21.6707 24.4234 22.7938C25.0501 23.8331 25.5571 24.9381 25.9351 26.0882C26.0294 26.3679 25.9255 26.6719 25.6587 26.7511Z" fill="white"/>
<circle cx="22" cy="8" r="1" fill="white"/>
<circle cx="18.5" cy="7.5" r="0.5" fill="white"/>
<circle cx="20.25" cy="5.125" r="1.25" fill="white"/>
</g>
<defs>
<filter id="filter0_d_244_231" x="0" y="0" width="41" height="41" filterUnits="userSpaceOnUse" color-interpolation-filters="sRGB">
<feFlood flood-opacity="0" result="BackgroundImageFix"/>
<feColorMatrix in="SourceAlpha" type="matrix" values="0 0 0 0 0 0 0 0 0 0 0 0 0 0 0 0 0 0 127 0" result="hardAlpha"/>
<feOffset dy="4"/>
<feGaussianBlur stdDeviation="2"/>
<feComposite in2="hardAlpha" operator="out"/>
<feColorMatrix type="matrix" values="0 0 0 0 0 0 0 0 0 0 0 0 0 0 0 0 0 0 0.25 0"/>
<feBlend mode="normal" in2="BackgroundImageFix" result="effect1_dropShadow_244_231"/>
<feBlend mode="normal" in="SourceGraphic" in2="effect1_dropShadow_244_231" result="shape"/>
</filter>
</defs>
</svg>
