<svg width="52" height="52" viewBox="0 0 52 52" fill="none" xmlns="http://www.w3.org/2000/svg">
<g filter="url(#filter0_d_288_1168)">
<rect x="4" width="44" height="44" rx="5" fill="#0B1F56"/>
<path fill-rule="evenodd" clip-rule="evenodd" d="M34.1872 31.9835C31.5841 25.5787 28.5456 23.8907 28.5456 20.6964V16.9341H29.1821C29.3509 16.9341 29.5127 16.868 29.6321 16.7504C29.7515 16.6328 29.8185 16.4733 29.8185 16.307V15.0529C29.8185 14.8866 29.7515 14.7271 29.6321 14.6095C29.5127 14.4919 29.3509 14.4258 29.1821 14.4258H22.8174C22.6486 14.4258 22.4867 14.4919 22.3674 14.6095C22.248 14.7271 22.1809 14.8866 22.1809 15.0529V16.307C22.1809 16.4733 22.248 16.6328 22.3674 16.7504C22.4867 16.868 22.6486 16.9341 22.8174 16.9341H23.4539V20.6964C23.4539 23.8907 20.4154 25.5787 17.8122 31.9835C16.9836 34.0215 14.8552 37 25.9997 37C37.1442 37 35.0159 34.0215 34.1872 31.9835ZM32.1289 34.1795C31.2353 34.4428 29.457 34.7426 25.9997 34.7426C22.5424 34.7426 20.7642 34.4428 19.8706 34.1795C19.5536 34.0867 19.4301 33.7242 19.5422 33.3919C19.8222 32.5516 20.3505 31.0994 21.3383 29.4778C23.7517 25.516 26.2556 30.1011 28.3394 30.1011C30.4232 30.1011 29.8516 28.1434 30.6612 29.4778C31.4058 30.7126 32.0082 32.0254 32.4573 33.3919C32.5693 33.7242 32.4458 34.0854 32.1289 34.1795Z" fill="white"/>
<circle cx="27.7807" cy="11.9008" r="1.18797" fill="white"/>
<circle cx="23.6233" cy="11.3068" r="0.593985" fill="white"/>
<circle cx="25.7027" cy="8.48496" r="1.48496" fill="white"/>
</g>
<defs>
<filter id="filter0_d_288_1168" x="0" y="0" width="52" height="52" filterUnits="userSpaceOnUse" color-interpolation-filters="sRGB">
<feFlood flood-opacity="0" result="BackgroundImageFix"/>
<feColorMatrix in="SourceAlpha" type="matrix" values="0 0 0 0 0 0 0 0 0 0 0 0 0 0 0 0 0 0 127 0" result="hardAlpha"/>
<feOffset dy="4"/>
<feGaussianBlur stdDeviation="2"/>
<feComposite in2="hardAlpha" operator="out"/>
<feColorMatrix type="matrix" values="0 0 0 0 0 0 0 0 0 0 0 0 0 0 0 0 0 0 0.25 0"/>
<feBlend mode="normal" in2="BackgroundImageFix" result="effect1_dropShadow_288_1168"/>
<feBlend mode="normal" in="SourceGraphic" in2="effect1_dropShadow_288_1168" result="shape"/>
</filter>
</defs>
</svg>
