<svg width="51" height="51" viewBox="0 0 51 51" fill="none" xmlns="http://www.w3.org/2000/svg">
<rect width="51" height="51" rx="10" fill="#6997ED" fill-opacity="0.5"/>
<path d="M37.2113 34.5924L29.4988 22.2504V15.42H30.499C30.7642 15.42 31.0186 15.3189 31.2062 15.1388C31.3938 14.9588 31.4991 14.7146 31.4991 14.46C31.4991 14.2054 31.3938 13.9612 31.2062 13.7812C31.0186 13.6011 30.7642 13.5 30.499 13.5H20.4973C20.232 13.5 19.9776 13.6011 19.7901 13.7812C19.6025 13.9612 19.4971 14.2054 19.4971 14.46C19.4971 14.7146 19.6025 14.9588 19.7901 15.1388C19.9776 15.3189 20.232 15.42 20.4973 15.42H21.4975V22.2504L13.7849 34.5924C13.603 34.8835 13.5048 35.2157 13.5002 35.5551C13.4956 35.8945 13.5848 36.229 13.7588 36.5245C13.9327 36.82 14.1852 37.066 14.4904 37.2373C14.7957 37.4087 15.1428 37.4993 15.4965 37.5H35.4998C35.8537 37.5 36.2014 37.4098 36.5071 37.2387C36.8129 37.0676 37.0659 36.8217 37.2403 36.526C37.4147 36.2304 37.5043 35.8957 37.4998 35.556C37.4954 35.2162 37.3971 34.8837 37.2151 34.5924H37.2113ZM23.3553 23.01C23.4488 22.8612 23.4981 22.6906 23.4978 22.5168V15.42H27.4985V22.5168C27.4982 22.6906 27.5474 22.8612 27.641 23.01L32.4193 30.66C30.919 30.9444 28.7849 30.8244 25.9495 29.4468C23.9604 28.4808 22.0676 27.9684 20.296 27.9096L23.3553 23.01ZM15.4965 35.58L19.0646 29.8704C20.8461 29.6616 22.8539 30.0924 25.0431 31.1568C27.4184 32.31 29.4188 32.7024 31.0441 32.7024C31.8706 32.7059 32.6936 32.5968 33.4882 32.3784L35.4998 35.58H15.4965Z" fill="#0B1F56"/>
</svg>
