<svg width="23" height="28" viewBox="0 0 23 28" fill="none" xmlns="http://www.w3.org/2000/svg">
<path d="M21.8631 11.6806L8.08598 25.86C7.70311 26.2528 7.06818 25.7977 7.31705 25.3091L12.221 15.623C12.2582 15.5499 12.2759 15.4685 12.2726 15.3866C12.2693 15.3046 12.2451 15.2249 12.2022 15.155C12.1593 15.0851 12.0991 15.0275 12.0276 14.9875C11.956 14.9476 11.8754 14.9267 11.7935 14.9268H1.47821C1.38399 14.9267 1.29189 14.8988 1.21346 14.8466C1.13502 14.7944 1.07373 14.7201 1.03728 14.6331C1.00082 14.5462 0.990822 14.4504 1.00853 14.3578C1.02623 14.2651 1.07086 14.1798 1.13681 14.1125L13.9153 1.1546C14.2854 0.779352 14.9012 1.19132 14.6954 1.67834L11.0309 10.3249C10.9999 10.3982 10.9876 10.4781 10.9952 10.5573C11.0028 10.6366 11.0299 10.7127 11.0743 10.7788C11.1186 10.8449 11.1787 10.8989 11.2491 10.9359C11.3196 10.9729 11.3981 10.9918 11.4776 10.9908L21.5137 10.8662C21.6084 10.8647 21.7015 10.8913 21.781 10.9428C21.8606 10.9942 21.9231 11.0681 21.9607 11.1551C21.9983 11.2422 22.0092 11.3384 21.9921 11.4316C21.975 11.5249 21.9307 11.611 21.8647 11.679L21.8631 11.6806Z" stroke="#0B1F56" stroke-width="2"/>
</svg>
