<svg width="27" height="23" viewBox="0 0 27 23" fill="none" xmlns="http://www.w3.org/2000/svg">
<path d="M13.3333 21.387C11.532 20.119 9.44667 19.311 7.26 19.039C5.70913 18.724 4.12909 18.5751 2.54667 18.595C2.34419 18.5968 2.14336 18.5584 1.95579 18.4822C1.76822 18.4059 1.59761 18.2932 1.45381 18.1507C1.31001 18.0081 1.19587 17.8385 1.11798 17.6516C1.04009 17.4647 0.999992 17.2642 1 17.0617L1.028 2.53771C1.02715 2.148 1.17471 1.7726 1.4407 1.48778C1.70669 1.20297 2.07115 1.03013 2.46 1.00437C4.07086 0.97235 5.6804 1.11631 7.26 1.43371C9.4443 1.71551 11.528 2.52155 13.3333 3.78304M13.3333 21.387V3.78304M13.3333 21.387C15.1347 20.119 17.22 19.311 19.4067 19.039C20.9575 18.724 22.5376 18.5751 24.12 18.595C24.3225 18.5968 24.5233 18.5584 24.7109 18.4822C24.8985 18.4059 25.0691 18.2932 25.2129 18.1507C25.3567 18.0081 25.4708 17.8385 25.5487 17.6516C25.6266 17.4647 25.6667 17.2642 25.6667 17.0617L25.6373 2.53771C25.6382 2.14822 25.4908 1.773 25.2251 1.48822C24.9594 1.20344 24.5953 1.03045 24.2067 1.00437C22.5958 0.97235 20.9863 1.11631 19.4067 1.43371C17.2224 1.71551 15.1387 2.52155 13.3333 3.78304" stroke="#0B1F56" stroke-width="2" stroke-linecap="round" stroke-linejoin="round"/>
</svg>
