<svg width="51" height="51" viewBox="0 0 51 51" fill="none" xmlns="http://www.w3.org/2000/svg">
<rect width="51" height="51" rx="10" fill="#6997ED" fill-opacity="0.5"/>
<path d="M25.5003 35.6933C23.699 34.4253 21.6137 33.6173 19.427 33.3453C17.8761 33.0303 16.2961 32.8814 14.7137 32.9013C14.5112 32.9031 14.3104 32.8647 14.1228 32.7885C13.9352 32.7122 13.7646 32.5995 13.6208 32.457C13.477 32.3144 13.3629 32.1448 13.285 31.9579C13.2071 31.771 13.167 31.5705 13.167 31.368L13.195 16.844C13.1941 16.4543 13.3417 16.0789 13.6077 15.7941C13.8737 15.5093 14.2381 15.3364 14.627 15.3107C16.2378 15.2787 17.8474 15.4226 19.427 15.74C21.6113 16.0218 23.695 16.8279 25.5003 18.0893M25.5003 35.6933V18.0893M25.5003 35.6933C27.3017 34.4253 29.387 33.6173 31.5737 33.3453C33.1245 33.0303 34.7046 32.8814 36.287 32.9013C36.4895 32.9031 36.6903 32.8647 36.8779 32.7885C37.0654 32.7122 37.2361 32.5995 37.3799 32.457C37.5237 32.3144 37.6378 32.1448 37.7157 31.9579C37.7936 31.771 37.8337 31.5705 37.8337 31.368L37.8043 16.844C37.8052 16.4545 37.6578 16.0793 37.3921 15.7945C37.1264 15.5097 36.7623 15.3368 36.3737 15.3107C34.7628 15.2787 33.1533 15.4226 31.5737 15.74C29.3894 16.0218 27.3057 16.8279 25.5003 18.0893" stroke="#0B1F56" stroke-width="2" stroke-linecap="round" stroke-linejoin="round"/>
</svg>
