<svg width="51" height="51" viewBox="0 0 51 51" fill="none" xmlns="http://www.w3.org/2000/svg">
<rect width="51" height="51" rx="10" fill="#6997ED" fill-opacity="0.5"/>
<g clip-path="url(#clip0_1423_19)">
<path d="M13.5918 19.8043C13.7143 18.5601 14.566 17.5597 15.7997 17.3567C17.5392 17.0697 20.5825 16.75 25.5 16.75C30.4175 16.75 33.4607 17.0697 35.2008 17.3567C36.434 17.5597 37.2863 18.5601 37.4082 19.8043C37.5692 21.4359 37.75 23.9985 37.75 27.25C37.75 30.5015 37.5692 33.0641 37.4082 34.6957C37.2857 35.9399 36.434 36.9403 35.2003 37.1433C33.4608 37.4303 30.4175 37.75 25.5 37.75C20.5825 37.75 17.5398 37.4303 15.7992 37.1433C14.566 36.9403 13.7137 35.9399 13.5918 34.6957C13.4308 33.0641 13.25 30.5015 13.25 27.25C13.25 23.9985 13.4308 21.4359 13.5918 19.8043Z" stroke="#0B1F56" stroke-width="2" stroke-linecap="round" stroke-linejoin="round"/>
<path d="M21.2642 16.8398C21.5307 16.0191 21.9863 15.0606 22.3282 14.3886C22.607 13.8403 23.1098 13.446 23.7188 13.3643C24.3095 13.2867 24.9046 13.2485 25.5003 13.25C26.2266 13.25 26.8292 13.3031 27.2812 13.3643C27.8902 13.446 28.3931 13.8409 28.6719 14.3886C29.0137 15.0601 29.4693 16.0191 29.7359 16.8398M23.237 31.9038C23.2568 32.4574 23.6092 32.9276 24.1581 33.0016C24.4976 33.0477 24.9415 33.0833 25.5003 33.0833C26.0592 33.0833 26.5031 33.0477 26.8426 33.0016C27.3909 32.9276 27.7438 32.4574 27.7642 31.9038C27.7835 31.3759 27.8051 30.6059 27.8191 29.5687C28.8562 29.5547 29.6262 29.5331 30.1542 29.5139C30.7077 29.4935 31.1779 29.1406 31.252 28.5922C31.2981 28.2527 31.3337 27.8088 31.3337 27.25C31.3337 26.6911 31.2981 26.2472 31.252 25.9077C31.1779 25.3594 30.7077 25.0065 30.1542 24.9861C29.6262 24.9668 28.8562 24.9452 27.8191 24.9312C27.8097 24.1527 27.7914 23.3743 27.7642 22.5961C27.7438 22.0426 27.3909 21.5724 26.8426 21.4983C26.3975 21.4408 25.9491 21.4135 25.5003 21.4166C24.9415 21.4166 24.4976 21.4522 24.1581 21.4983C23.6097 21.5724 23.2568 22.0426 23.2364 22.5961C23.2172 23.1241 23.1956 23.8941 23.1816 24.9312C22.1444 24.9452 21.3744 24.9668 20.8465 24.9861C20.2929 25.0065 19.8227 25.3594 19.7487 25.9077C19.7026 26.2472 19.667 26.6911 19.667 27.25C19.667 27.8088 19.7026 28.2527 19.7487 28.5922C19.8227 29.1406 20.2929 29.4935 20.8465 29.5139C21.3744 29.5331 22.1444 29.5547 23.1816 29.5687C23.1956 30.6059 23.2172 31.3759 23.2364 31.9038H23.237Z" stroke="#0B1F56" stroke-width="2" stroke-linecap="round" stroke-linejoin="round"/>
</g>
<defs>
<clipPath id="clip0_1423_19">
<rect width="28" height="28" fill="white" transform="translate(11.5 11.5)"/>
</clipPath>
</defs>
</svg>
