<svg width="51" height="51" viewBox="0 0 51 51" fill="none" xmlns="http://www.w3.org/2000/svg">
<rect width="51" height="51" rx="10" fill="#6997ED" fill-opacity="0.5"/>
<path d="M35.8631 23.6718L22.086 37.8512C21.7031 38.244 21.0682 37.7889 21.317 37.3003L26.221 27.6142C26.2582 27.5411 26.2759 27.4597 26.2726 27.3778C26.2693 27.2958 26.2451 27.2161 26.2022 27.1462C26.1593 27.0763 26.0991 27.0187 26.0276 26.9787C25.956 26.9388 25.8754 26.9179 25.7935 26.918H15.4782C15.384 26.918 15.2919 26.8901 15.2135 26.8378C15.135 26.7856 15.0737 26.7113 15.0373 26.6244C15.0008 26.5374 14.9908 26.4416 15.0085 26.349C15.0262 26.2564 15.0709 26.171 15.1368 26.1037L27.9153 13.1458C28.2854 12.7706 28.9012 13.1825 28.6954 13.6696L25.0309 22.3161C24.9999 22.3894 24.9876 22.4693 24.9952 22.5486C25.0028 22.6278 25.0299 22.7039 25.0743 22.77C25.1186 22.8361 25.1787 22.8901 25.2491 22.9271C25.3196 22.9641 25.3981 22.983 25.4776 22.982L35.5137 22.8574C35.6084 22.8559 35.7015 22.8825 35.781 22.934C35.8606 22.9854 35.9231 23.0593 35.9607 23.1463C35.9983 23.2334 36.0092 23.3296 35.9921 23.4229C35.975 23.5161 35.9307 23.6022 35.8647 23.6702L35.8631 23.6718Z" stroke="#0B1F56" stroke-width="2"/>
</svg>
