<svg width="27" height="27" viewBox="0 0 27 27" fill="none" xmlns="http://www.w3.org/2000/svg">
<path d="M1.34183 7.55439C1.46433 6.31014 2.316 5.30973 3.54975 5.10673C5.28925 4.81973 8.3325 4.50006 13.25 4.50006C18.1675 4.50006 21.2107 4.81973 22.9508 5.10673C24.184 5.30973 25.0363 6.31014 25.1582 7.55439C25.3192 9.18598 25.5 11.7486 25.5 15.0001C25.5 18.2516 25.3192 20.8141 25.1582 22.4457C25.0357 23.69 24.184 24.6904 22.9503 24.8934C21.2108 25.1804 18.1675 25.5001 13.25 25.5001C8.3325 25.5001 5.28983 25.1804 3.54917 24.8934C2.316 24.6904 1.46375 23.69 1.34183 22.4457C1.18083 20.8141 1 18.2516 1 15.0001C1 11.7486 1.18083 9.18598 1.34183 7.55439Z" stroke="#0B1F56" stroke-width="2" stroke-linecap="round" stroke-linejoin="round"/>
<path d="M9.01416 4.58987C9.28074 3.76912 9.73633 2.81071 10.0782 2.13871C10.357 1.59037 10.8598 1.19604 11.4688 1.11437C12.0595 1.03676 12.6546 0.99856 13.2503 1.00004C13.9766 1.00004 14.5792 1.05312 15.0312 1.11437C15.6402 1.19604 16.1431 1.59096 16.4219 2.13871C16.7637 2.81012 17.2193 3.76912 17.4859 4.58987M10.987 19.6539C11.0068 20.2075 11.3592 20.6776 11.9081 20.7517C12.2476 20.7978 12.6915 20.8334 13.2503 20.8334C13.8092 20.8334 14.2531 20.7978 14.5926 20.7517C15.1409 20.6776 15.4938 20.2075 15.5142 19.6539C15.5335 19.126 15.5551 18.356 15.5691 17.3188C16.6062 17.3048 17.3762 17.2832 17.9042 17.264C18.4577 17.2435 18.9279 16.8906 19.002 16.3423C19.0481 16.0028 19.0837 15.5589 19.0837 15C19.0837 14.4412 19.0481 13.9973 19.002 13.6578C18.9279 13.1095 18.4577 12.7565 17.9042 12.7361C17.3762 12.7169 16.6062 12.6953 15.5691 12.6813C15.5597 11.9027 15.5414 11.1243 15.5142 10.3462C15.4938 9.79262 15.1409 9.32246 14.5926 9.24837C14.1475 9.19081 13.6991 9.16353 13.2503 9.16671C12.6915 9.16671 12.2476 9.20229 11.9081 9.24837C11.3597 9.32246 11.0068 9.79262 10.9864 10.3462C10.9672 10.8741 10.9456 11.6441 10.9316 12.6813C9.89441 12.6953 9.12441 12.7169 8.59649 12.7361C8.04291 12.7565 7.57274 13.1095 7.49866 13.6578C7.45258 13.9973 7.41699 14.4412 7.41699 15C7.41699 15.5589 7.45258 16.0028 7.49866 16.3423C7.57274 16.8906 8.04291 17.2435 8.59649 17.264C9.12441 17.2832 9.89441 17.3048 10.9316 17.3188C10.9456 18.356 10.9672 19.126 10.9864 19.6539H10.987Z" stroke="#0B1F56" stroke-width="2" stroke-linecap="round" stroke-linejoin="round"/>
</svg>
