<svg width="24" height="24" viewBox="0 0 24 24" fill="none" xmlns="http://www.w3.org/2000/svg">
<path d="M23.7113 21.0924L15.9988 8.7504V1.92H16.999C17.2642 1.92 17.5186 1.81886 17.7062 1.63882C17.8938 1.45879 17.9991 1.21461 17.9991 0.96C17.9991 0.705392 17.8938 0.461212 17.7062 0.281177C17.5186 0.101143 17.2642 0 16.999 0H6.99729C6.73203 0 6.47763 0.101143 6.29007 0.281177C6.1025 0.461212 5.99712 0.705392 5.99712 0.96C5.99712 1.21461 6.1025 1.45879 6.29007 1.63882C6.47763 1.81886 6.73203 1.92 6.99729 1.92H7.99746V8.7504L0.284919 21.0924C0.103019 21.3835 0.00476479 21.7157 0.000168975 22.0551C-0.00442684 22.3945 0.0847999 22.729 0.258757 23.0245C0.432714 23.32 0.685183 23.566 0.990439 23.7373C1.29569 23.9087 1.64282 23.9993 1.99646 24H21.9998C22.3537 24 22.7014 23.9098 23.0071 23.7387C23.3129 23.5676 23.5659 23.3217 23.7403 23.026C23.9147 22.7304 24.0043 22.3957 23.9998 22.056C23.9954 21.7162 23.8971 21.3837 23.7151 21.0924H23.7113ZM9.85527 9.51C9.94881 9.36118 9.9981 9.19061 9.99779 9.0168V1.92H13.9985V9.0168C13.9982 9.19061 14.0474 9.36118 14.141 9.51L18.9193 17.16C17.419 17.4444 15.2849 17.3244 12.4495 15.9468C10.4604 14.9808 8.56755 14.4684 6.79601 14.4096L9.85527 9.51ZM1.99646 22.08L5.56455 16.3704C7.3461 16.1616 9.35393 16.5924 11.5431 17.6568C13.9184 18.81 15.9188 19.2024 17.5441 19.2024C18.3706 19.2059 19.1936 19.0968 19.9882 18.8784L21.9998 22.08H1.99646Z" fill="#0B1F56"/>
</svg>
