<svg width="59" height="59" viewBox="0 0 59 59" fill="none" xmlns="http://www.w3.org/2000/svg">
<rect width="59" height="59" rx="29.5" fill="#6997ED" fill-opacity="0.5"/>
<path d="M17 38.875C17 37.2174 17.6585 35.6277 18.8306 34.4556C20.0027 33.2835 21.5924 32.625 23.25 32.625H35.75C37.4076 32.625 38.9973 33.2835 40.1694 34.4556C41.3415 35.6277 42 37.2174 42 38.875C42 39.7038 41.6708 40.4987 41.0847 41.0847C40.4987 41.6708 39.7038 42 38.875 42H20.125C19.2962 42 18.5013 41.6708 17.9153 41.0847C17.3292 40.4987 17 39.7038 17 38.875Z" stroke="#0B1F56" stroke-width="2" stroke-linejoin="round"/>
<path d="M29.5 26.375C32.0888 26.375 34.1875 24.2763 34.1875 21.6875C34.1875 19.0987 32.0888 17 29.5 17C26.9112 17 24.8125 19.0987 24.8125 21.6875C24.8125 24.2763 26.9112 26.375 29.5 26.375Z" stroke="#0B1F56" stroke-width="2"/>
</svg>
