<svg width="59" height="60" viewBox="0 0 59 60" fill="none" xmlns="http://www.w3.org/2000/svg">
<rect y="0.5" width="59" height="59" rx="29.5" fill="#6997ED" fill-opacity="0.5"/>
<path d="M41.2113 39.0924L33.4988 26.7504V19.92H34.499C34.7642 19.92 35.0186 19.8189 35.2062 19.6388C35.3938 19.4588 35.4991 19.2146 35.4991 18.96C35.4991 18.7054 35.3938 18.4612 35.2062 18.2812C35.0186 18.1011 34.7642 18 34.499 18H24.4973C24.232 18 23.9776 18.1011 23.7901 18.2812C23.6025 18.4612 23.4971 18.7054 23.4971 18.96C23.4971 19.2146 23.6025 19.4588 23.7901 19.6388C23.9776 19.8189 24.232 19.92 24.4973 19.92H25.4975V26.7504L17.7849 39.0924C17.603 39.3835 17.5048 39.7157 17.5002 40.0551C17.4956 40.3945 17.5848 40.729 17.7588 41.0245C17.9327 41.32 18.1852 41.566 18.4904 41.7373C18.7957 41.9087 19.1428 41.9993 19.4965 42H39.4998C39.8537 42 40.2014 41.9098 40.5071 41.7387C40.8129 41.5676 41.0659 41.3217 41.2403 41.026C41.4147 40.7304 41.5043 40.3957 41.4998 40.056C41.4954 39.7162 41.3971 39.3837 41.2151 39.0924H41.2113ZM27.3553 27.51C27.4488 27.3612 27.4981 27.1906 27.4978 27.0168V19.92H31.4985V27.0168C31.4982 27.1906 31.5474 27.3612 31.641 27.51L36.4193 35.16C34.919 35.4444 32.7849 35.3244 29.9495 33.9468C27.9604 32.9808 26.0676 32.4684 24.296 32.4096L27.3553 27.51ZM19.4965 40.08L23.0646 34.3704C24.8461 34.1616 26.8539 34.5924 29.0431 35.6568C31.4184 36.81 33.4188 37.2024 35.0441 37.2024C35.8706 37.2059 36.6936 37.0968 37.4882 36.8784L39.4998 40.08H19.4965Z" fill="#0B1F56"/>
</svg>
