<svg width="34" height="33" viewBox="0 0 34 33" fill="none" xmlns="http://www.w3.org/2000/svg">
<rect x="0.356445" width="33" height="33" rx="16.5" fill="#0B1F56" fill-opacity="0.3"/>
<path d="M13.545 20.9C14.825 19.7933 15.8316 18.8867 16.565 18.18C17.3116 17.46 17.9316 16.7133 18.425 15.94C18.9183 15.1667 19.165 14.3933 19.165 13.62C19.165 12.82 18.9716 12.1933 18.585 11.74C18.2116 11.2867 17.6183 11.06 16.805 11.06C16.0183 11.06 15.405 11.3133 14.965 11.82C14.5383 12.3133 14.3116 12.98 14.285 13.82H12.085C12.125 12.3 12.5783 11.14 13.445 10.34C14.325 9.52667 15.4383 9.12 16.785 9.12C18.2383 9.12 19.3716 9.52 20.185 10.32C21.0116 11.12 21.425 12.1867 21.425 13.52C21.425 14.48 21.1783 15.4067 20.685 16.3C20.205 17.18 19.625 17.9733 18.945 18.68C18.2783 19.3733 17.425 20.18 16.385 21.1L15.485 21.9H21.825V23.8H12.105V22.14L13.545 20.9Z" fill="white"/>
</svg>
