<svg width="34" height="33" viewBox="0 0 34 33" fill="none" xmlns="http://www.w3.org/2000/svg">
<rect x="0.356445" width="33" height="33" rx="16.5" fill="#0B1F56" fill-opacity="0.3"/>
<path d="M12.0789 13.02C12.1589 11.78 12.6323 10.8133 13.4989 10.12C14.3789 9.42667 15.4989 9.08 16.8589 9.08C17.7923 9.08 18.5989 9.24667 19.2789 9.58C19.9589 9.91333 20.4723 10.3667 20.8189 10.94C21.1656 11.5133 21.3389 12.16 21.3389 12.88C21.3389 13.7067 21.1189 14.4133 20.6789 15C20.2389 15.5867 19.7123 15.98 19.0989 16.18V16.26C19.8856 16.5 20.4989 16.94 20.9389 17.58C21.3789 18.2067 21.5989 19.0133 21.5989 20C21.5989 20.7867 21.4189 21.4867 21.0589 22.1C20.6989 22.7133 20.1656 23.2 19.4589 23.56C18.7523 23.9067 17.9056 24.08 16.9189 24.08C15.4789 24.08 14.2923 23.7133 13.3589 22.98C12.4389 22.2333 11.9456 21.1667 11.8789 19.78H14.0789C14.1323 20.4867 14.4056 21.0667 14.8989 21.52C15.3923 21.96 16.0589 22.18 16.8989 22.18C17.7123 22.18 18.3389 21.96 18.7789 21.52C19.2189 21.0667 19.4389 20.4867 19.4389 19.78C19.4389 18.8467 19.1389 18.1867 18.5389 17.8C17.9523 17.4 17.0456 17.2 15.8189 17.2H15.2989V15.32H15.8389C16.9189 15.3067 17.7389 15.1267 18.2989 14.78C18.8723 14.4333 19.1589 13.8867 19.1589 13.14C19.1589 12.5 18.9523 11.9933 18.5389 11.62C18.1256 11.2333 17.5389 11.04 16.7789 11.04C16.0323 11.04 15.4523 11.2333 15.0389 11.62C14.6256 11.9933 14.3789 12.46 14.2989 13.02H12.0789Z" fill="white"/>
</svg>
